<svg width="32" height="32" viewBox="0 0 32 32" fill="none" xmlns="http://www.w3.org/2000/svg">
<path d="M28.075 6.48749C27.3972 5.72682 26.5704 5.11353 25.6458 4.68563C24.7212 4.25773 23.7185 4.02436 22.7 3.99999C21.6824 3.97768 20.6707 4.16103 19.7256 4.53906C18.7805 4.91709 17.9215 5.48202 17.2 6.19999L16 7.38749L15.0625 6.46249C12.15 3.53749 7.39998 3.28749 4.48748 5.92499C3.72951 6.60495 3.1182 7.43237 2.69093 8.35666C2.26366 9.28095 2.0294 10.2827 2.00249 11.3006C1.97558 12.3185 2.15658 13.3312 2.53442 14.2768C2.91226 15.2224 3.479 16.0809 4.19998 16.8L14.5875 27.1875C14.7723 27.3742 14.9923 27.5224 15.2347 27.6235C15.4772 27.7247 15.7373 27.7768 16 27.7768C16.2627 27.7768 16.5228 27.7247 16.7652 27.6235C17.0077 27.5224 17.2277 27.3742 17.4125 27.1875L27.5375 17.0625C30.4625 14.15 30.7 9.39999 28.075 6.48749Z" fill="black"/>
</svg>
